<mxfile host="app.diagrams.net" modified="2024-04-26T23:10:55.517Z" agent="Mozilla/5.0 (Windows NT 10.0; Win64; x64) AppleWebKit/537.36 (KHTML, like Gecko) Chrome/120.0.0.0 YaBrowser/24.1.0.0 Safari/537.36" etag="3KkyX13Z_BlWWJgIdpIW" version="24.3.1" type="github">
  <diagram name="Page-1" id="2YBvvXClWsGukQMizWep">
    <mxGraphModel dx="838" dy="905" grid="1" gridSize="10" guides="1" tooltips="1" connect="1" arrows="1" fold="1" page="1" pageScale="1" pageWidth="850" pageHeight="1100" math="0" shadow="0">
      <root>
        <mxCell id="0" />
        <mxCell id="1" parent="0" />
        <mxCell id="aM9ryv3xv72pqoxQDRHE-5" value="Учебный отдел" style="shape=umlLifeline;perimeter=lifelinePerimeter;whiteSpace=wrap;html=1;container=0;dropTarget=0;collapsible=0;recursiveResize=0;outlineConnect=0;portConstraint=eastwest;newEdgeStyle={&quot;edgeStyle&quot;:&quot;elbowEdgeStyle&quot;,&quot;elbow&quot;:&quot;vertical&quot;,&quot;curved&quot;:0,&quot;rounded&quot;:0};" parent="1" vertex="1">
          <mxGeometry x="225" y="30" width="100" height="300" as="geometry" />
        </mxCell>
        <mxCell id="aM9ryv3xv72pqoxQDRHE-6" value="" style="html=1;points=[];perimeter=orthogonalPerimeter;outlineConnect=0;targetShapes=umlLifeline;portConstraint=eastwest;newEdgeStyle={&quot;edgeStyle&quot;:&quot;elbowEdgeStyle&quot;,&quot;elbow&quot;:&quot;vertical&quot;,&quot;curved&quot;:0,&quot;rounded&quot;:0};" parent="aM9ryv3xv72pqoxQDRHE-5" vertex="1">
          <mxGeometry x="45" y="100" width="10" height="30" as="geometry" />
        </mxCell>
        <mxCell id="JV1Mk4GfQYpAjEkD_vr5-40" value="" style="html=1;points=[[0,0,0,0,5],[0,1,0,0,-5],[1,0,0,0,5],[1,1,0,0,-5]];perimeter=orthogonalPerimeter;outlineConnect=0;targetShapes=umlLifeline;portConstraint=eastwest;newEdgeStyle={&quot;curved&quot;:0,&quot;rounded&quot;:0};" parent="aM9ryv3xv72pqoxQDRHE-5" vertex="1">
          <mxGeometry x="45" y="210" width="10" height="50" as="geometry" />
        </mxCell>
        <mxCell id="aM9ryv3xv72pqoxQDRHE-7" value="Запрос записи на семинар" style="html=1;verticalAlign=bottom;endArrow=block;edgeStyle=elbowEdgeStyle;elbow=vertical;curved=0;rounded=0;" parent="1" source="JV1Mk4GfQYpAjEkD_vr5-23" target="aM9ryv3xv72pqoxQDRHE-6" edge="1">
          <mxGeometry relative="1" as="geometry">
            <mxPoint x="90" y="110" as="sourcePoint" />
            <Array as="points">
              <mxPoint x="170" y="130" />
              <mxPoint x="185" y="110" />
            </Array>
          </mxGeometry>
        </mxCell>
        <mxCell id="aM9ryv3xv72pqoxQDRHE-8" value="Вернуть статус" style="html=1;verticalAlign=bottom;endArrow=open;dashed=1;endSize=8;edgeStyle=elbowEdgeStyle;elbow=vertical;curved=0;rounded=0;" parent="1" source="JV1Mk4GfQYpAjEkD_vr5-38" target="JV1Mk4GfQYpAjEkD_vr5-40" edge="1">
          <mxGeometry x="-0.519" relative="1" as="geometry">
            <mxPoint x="320" y="240" as="targetPoint" />
            <Array as="points">
              <mxPoint x="530" y="240" />
            </Array>
            <mxPoint x="670" y="240" as="sourcePoint" />
            <mxPoint as="offset" />
          </mxGeometry>
        </mxCell>
        <mxCell id="JV1Mk4GfQYpAjEkD_vr5-23" value="" style="html=1;points=[[0,0,0,0,5],[0,1,0,0,-5],[1,0,0,0,5],[1,1,0,0,-5]];perimeter=orthogonalPerimeter;outlineConnect=0;targetShapes=umlLifeline;portConstraint=eastwest;newEdgeStyle={&quot;curved&quot;:0,&quot;rounded&quot;:0};" parent="1" vertex="1">
          <mxGeometry x="60" y="114" width="10" height="216" as="geometry" />
        </mxCell>
        <mxCell id="JV1Mk4GfQYpAjEkD_vr5-25" value="Студент" style="shape=umlActor;verticalLabelPosition=bottom;verticalAlign=top;html=1;" parent="1" vertex="1">
          <mxGeometry x="50" y="30" width="30" height="60" as="geometry" />
        </mxCell>
        <mxCell id="JV1Mk4GfQYpAjEkD_vr5-28" value="База данных семинаров" style="shape=umlLifeline;perimeter=lifelinePerimeter;whiteSpace=wrap;html=1;container=0;dropTarget=0;collapsible=0;recursiveResize=0;outlineConnect=0;portConstraint=eastwest;newEdgeStyle={&quot;edgeStyle&quot;:&quot;elbowEdgeStyle&quot;,&quot;elbow&quot;:&quot;vertical&quot;,&quot;curved&quot;:0,&quot;rounded&quot;:0};" parent="1" vertex="1">
          <mxGeometry x="440" y="30" width="100" height="300" as="geometry" />
        </mxCell>
        <mxCell id="JV1Mk4GfQYpAjEkD_vr5-29" value="" style="html=1;points=[];perimeter=orthogonalPerimeter;outlineConnect=0;targetShapes=umlLifeline;portConstraint=eastwest;newEdgeStyle={&quot;edgeStyle&quot;:&quot;elbowEdgeStyle&quot;,&quot;elbow&quot;:&quot;vertical&quot;,&quot;curved&quot;:0,&quot;rounded&quot;:0};" parent="JV1Mk4GfQYpAjEkD_vr5-28" vertex="1">
          <mxGeometry x="45" y="130" width="10" height="30" as="geometry" />
        </mxCell>
        <mxCell id="JV1Mk4GfQYpAjEkD_vr5-30" value="Слушатель" style="shape=umlLifeline;perimeter=lifelinePerimeter;whiteSpace=wrap;html=1;container=0;dropTarget=0;collapsible=0;recursiveResize=0;outlineConnect=0;portConstraint=eastwest;newEdgeStyle={&quot;edgeStyle&quot;:&quot;elbowEdgeStyle&quot;,&quot;elbow&quot;:&quot;vertical&quot;,&quot;curved&quot;:0,&quot;rounded&quot;:0};" parent="1" vertex="1">
          <mxGeometry x="630" y="30" width="100" height="300" as="geometry" />
        </mxCell>
        <mxCell id="JV1Mk4GfQYpAjEkD_vr5-38" value="" style="html=1;points=[[0,0,0,0,5],[0,1,0,0,-5],[1,0,0,0,5],[1,1,0,0,-5]];perimeter=orthogonalPerimeter;outlineConnect=0;targetShapes=umlLifeline;portConstraint=eastwest;newEdgeStyle={&quot;curved&quot;:0,&quot;rounded&quot;:0};" parent="JV1Mk4GfQYpAjEkD_vr5-30" vertex="1">
          <mxGeometry x="45" y="160" width="10" height="50" as="geometry" />
        </mxCell>
        <mxCell id="JV1Mk4GfQYpAjEkD_vr5-39" value="&lt;span style=&quot;text-align: center;&quot;&gt;Проверка посещений&lt;/span&gt;" style="html=1;align=left;spacingLeft=2;endArrow=block;rounded=0;edgeStyle=orthogonalEdgeStyle;curved=0;rounded=0;" parent="JV1Mk4GfQYpAjEkD_vr5-30" source="JV1Mk4GfQYpAjEkD_vr5-38" target="JV1Mk4GfQYpAjEkD_vr5-38" edge="1">
          <mxGeometry relative="1" as="geometry">
            <mxPoint x="55" y="167.5" as="sourcePoint" />
            <Array as="points">
              <mxPoint x="90" y="167" />
              <mxPoint x="90" y="200" />
            </Array>
            <mxPoint x="55" y="192.5" as="targetPoint" />
          </mxGeometry>
        </mxCell>
        <mxCell id="JV1Mk4GfQYpAjEkD_vr5-32" value="Запрос истории&amp;nbsp;&lt;div&gt;пройденных семинаров&lt;/div&gt;" style="html=1;verticalAlign=bottom;endArrow=block;edgeStyle=elbowEdgeStyle;elbow=vertical;curved=0;rounded=0;" parent="1" source="aM9ryv3xv72pqoxQDRHE-6" target="JV1Mk4GfQYpAjEkD_vr5-29" edge="1">
          <mxGeometry relative="1" as="geometry">
            <mxPoint x="280" y="153.5" as="sourcePoint" />
            <Array as="points">
              <mxPoint x="380" y="160" />
              <mxPoint x="395" y="133.5" />
            </Array>
            <mxPoint x="480" y="153.5" as="targetPoint" />
          </mxGeometry>
        </mxCell>
        <mxCell id="JV1Mk4GfQYpAjEkD_vr5-33" value="Передача списка семинаров" style="html=1;verticalAlign=bottom;endArrow=block;edgeStyle=elbowEdgeStyle;elbow=vertical;curved=0;rounded=0;" parent="1" source="JV1Mk4GfQYpAjEkD_vr5-29" edge="1">
          <mxGeometry relative="1" as="geometry">
            <mxPoint x="500" y="190" as="sourcePoint" />
            <Array as="points">
              <mxPoint x="600" y="190" />
              <mxPoint x="615" y="163.5" />
            </Array>
            <mxPoint x="675" y="190" as="targetPoint" />
          </mxGeometry>
        </mxCell>
        <mxCell id="JV1Mk4GfQYpAjEkD_vr5-41" value="Результат попытки&amp;nbsp;&lt;div&gt;записи на семинар&lt;/div&gt;" style="html=1;verticalAlign=bottom;endArrow=open;dashed=1;endSize=8;edgeStyle=elbowEdgeStyle;elbow=vertical;curved=0;rounded=0;" parent="1" source="JV1Mk4GfQYpAjEkD_vr5-40" edge="1">
          <mxGeometry x="-0.1" relative="1" as="geometry">
            <mxPoint x="70" y="290" as="targetPoint" />
            <Array as="points">
              <mxPoint x="70" y="290" />
            </Array>
            <mxPoint x="335" y="280" as="sourcePoint" />
            <mxPoint as="offset" />
          </mxGeometry>
        </mxCell>
        <mxCell id="JV1Mk4GfQYpAjEkD_vr5-42" value="Студент" style="shape=umlActor;verticalLabelPosition=bottom;verticalAlign=top;html=1;" parent="1" vertex="1">
          <mxGeometry x="180" y="567" width="30" height="60" as="geometry" />
        </mxCell>
        <mxCell id="JV1Mk4GfQYpAjEkD_vr5-43" value="Слушатель" style="html=1;whiteSpace=wrap;" parent="1" vertex="1">
          <mxGeometry x="160" y="440" width="110" height="50" as="geometry" />
        </mxCell>
        <mxCell id="JV1Mk4GfQYpAjEkD_vr5-44" value="Учебный отдел" style="html=1;whiteSpace=wrap;" parent="1" vertex="1">
          <mxGeometry x="425" y="578" width="110" height="50" as="geometry" />
        </mxCell>
        <mxCell id="JV1Mk4GfQYpAjEkD_vr5-45" value="База данных семинаров" style="html=1;whiteSpace=wrap;" parent="1" vertex="1">
          <mxGeometry x="425" y="440" width="110" height="50" as="geometry" />
        </mxCell>
        <mxCell id="JV1Mk4GfQYpAjEkD_vr5-49" value="Запрос записи на семинар" style="html=1;verticalAlign=bottom;endArrow=block;edgeStyle=elbowEdgeStyle;elbow=vertical;curved=0;rounded=0;" parent="1" edge="1">
          <mxGeometry relative="1" as="geometry">
            <mxPoint x="210" y="590" as="sourcePoint" />
            <Array as="points">
              <mxPoint x="300" y="590" />
            </Array>
            <mxPoint x="425" y="590" as="targetPoint" />
          </mxGeometry>
        </mxCell>
        <mxCell id="JV1Mk4GfQYpAjEkD_vr5-50" value="Запрос истории&amp;nbsp;&lt;div&gt;пройденных семинаров&lt;/div&gt;" style="html=1;verticalAlign=bottom;endArrow=block;edgeStyle=elbowEdgeStyle;elbow=vertical;curved=0;rounded=0;exitX=0.5;exitY=0;exitDx=0;exitDy=0;entryX=0.5;entryY=1;entryDx=0;entryDy=0;" parent="1" source="JV1Mk4GfQYpAjEkD_vr5-44" target="JV1Mk4GfQYpAjEkD_vr5-45" edge="1">
          <mxGeometry x="-0.3636" y="-70" relative="1" as="geometry">
            <mxPoint x="320" y="150" as="sourcePoint" />
            <Array as="points">
              <mxPoint x="480" y="530" />
              <mxPoint x="435" y="123.5" />
            </Array>
            <mxPoint x="525" y="150" as="targetPoint" />
            <mxPoint as="offset" />
          </mxGeometry>
        </mxCell>
        <mxCell id="JV1Mk4GfQYpAjEkD_vr5-51" value="Передача списка семинаров" style="html=1;verticalAlign=bottom;endArrow=block;edgeStyle=elbowEdgeStyle;elbow=vertical;curved=0;rounded=0;exitX=0;exitY=0.5;exitDx=0;exitDy=0;entryX=1;entryY=0.5;entryDx=0;entryDy=0;" parent="1" source="JV1Mk4GfQYpAjEkD_vr5-45" target="JV1Mk4GfQYpAjEkD_vr5-43" edge="1">
          <mxGeometry x="-0.0323" y="-5" relative="1" as="geometry">
            <mxPoint x="535" y="180" as="sourcePoint" />
            <Array as="points">
              <mxPoint x="360" y="465" />
              <mxPoint x="655" y="153.5" />
            </Array>
            <mxPoint x="715" y="180" as="targetPoint" />
            <mxPoint as="offset" />
          </mxGeometry>
        </mxCell>
        <mxCell id="JV1Mk4GfQYpAjEkD_vr5-52" value="&lt;span style=&quot;text-align: center;&quot;&gt;Проверка посещений&lt;/span&gt;" style="html=1;align=left;spacingLeft=2;endArrow=block;rounded=0;edgeStyle=orthogonalEdgeStyle;curved=0;rounded=0;entryX=0;entryY=0.5;entryDx=0;entryDy=0;exitX=0.5;exitY=0;exitDx=0;exitDy=0;" parent="1" source="JV1Mk4GfQYpAjEkD_vr5-43" target="JV1Mk4GfQYpAjEkD_vr5-43" edge="1">
          <mxGeometry x="0.1364" y="-14" relative="1" as="geometry">
            <mxPoint x="200" y="410" as="sourcePoint" />
            <Array as="points">
              <mxPoint x="210" y="440" />
              <mxPoint x="210" y="420" />
              <mxPoint x="110" y="420" />
              <mxPoint x="110" y="465" />
            </Array>
            <mxPoint x="110" y="423" as="targetPoint" />
            <mxPoint x="4" y="-10" as="offset" />
          </mxGeometry>
        </mxCell>
        <mxCell id="JV1Mk4GfQYpAjEkD_vr5-53" value="Вернуть статус" style="html=1;verticalAlign=bottom;endArrow=open;dashed=1;endSize=8;elbow=vertical;rounded=0;exitX=1;exitY=1;exitDx=0;exitDy=0;entryX=0;entryY=0;entryDx=0;entryDy=0;" parent="1" source="JV1Mk4GfQYpAjEkD_vr5-43" target="JV1Mk4GfQYpAjEkD_vr5-44" edge="1">
          <mxGeometry x="0.1974" y="15" relative="1" as="geometry">
            <mxPoint x="320" y="230" as="targetPoint" />
            <mxPoint x="715" y="230" as="sourcePoint" />
            <mxPoint as="offset" />
          </mxGeometry>
        </mxCell>
        <mxCell id="JV1Mk4GfQYpAjEkD_vr5-54" value="Результат попытки&amp;nbsp;&lt;div&gt;записи на семинар&lt;/div&gt;" style="html=1;verticalAlign=bottom;endArrow=open;dashed=1;endSize=8;edgeStyle=elbowEdgeStyle;elbow=vertical;curved=0;rounded=0;" parent="1" target="JV1Mk4GfQYpAjEkD_vr5-42" edge="1">
          <mxGeometry x="-0.0233" y="30" relative="1" as="geometry">
            <mxPoint x="225" y="610" as="targetPoint" />
            <Array as="points">
              <mxPoint x="225" y="610" />
            </Array>
            <mxPoint x="425" y="610" as="sourcePoint" />
            <mxPoint as="offset" />
          </mxGeometry>
        </mxCell>
        <mxCell id="JV1Mk4GfQYpAjEkD_vr5-55" value="Интерфейс&lt;div&gt;сайт агентства&lt;/div&gt;" style="shape=umlLifeline;perimeter=lifelinePerimeter;whiteSpace=wrap;html=1;container=0;dropTarget=0;collapsible=0;recursiveResize=0;outlineConnect=0;portConstraint=eastwest;newEdgeStyle={&quot;edgeStyle&quot;:&quot;elbowEdgeStyle&quot;,&quot;elbow&quot;:&quot;vertical&quot;,&quot;curved&quot;:0,&quot;rounded&quot;:0};" parent="1" vertex="1">
          <mxGeometry x="1040" y="40" width="100" height="300" as="geometry" />
        </mxCell>
        <mxCell id="JV1Mk4GfQYpAjEkD_vr5-56" value="" style="html=1;points=[];perimeter=orthogonalPerimeter;outlineConnect=0;targetShapes=umlLifeline;portConstraint=eastwest;newEdgeStyle={&quot;edgeStyle&quot;:&quot;elbowEdgeStyle&quot;,&quot;elbow&quot;:&quot;vertical&quot;,&quot;curved&quot;:0,&quot;rounded&quot;:0};" parent="JV1Mk4GfQYpAjEkD_vr5-55" vertex="1">
          <mxGeometry x="45" y="100" width="10" height="180" as="geometry" />
        </mxCell>
        <mxCell id="JV1Mk4GfQYpAjEkD_vr5-58" value="Запрос на создание&lt;div&gt;аккаунта&lt;/div&gt;" style="html=1;verticalAlign=bottom;endArrow=block;edgeStyle=elbowEdgeStyle;elbow=horizontal;curved=0;rounded=0;" parent="1" source="JV1Mk4GfQYpAjEkD_vr5-60" target="JV1Mk4GfQYpAjEkD_vr5-56" edge="1">
          <mxGeometry relative="1" as="geometry">
            <mxPoint x="920" y="120" as="sourcePoint" />
            <Array as="points">
              <mxPoint x="1000" y="140" />
              <mxPoint x="1015" y="120" />
            </Array>
          </mxGeometry>
        </mxCell>
        <mxCell id="JV1Mk4GfQYpAjEkD_vr5-60" value="" style="html=1;points=[[0,0,0,0,5],[0,1,0,0,-5],[1,0,0,0,5],[1,1,0,0,-5]];perimeter=orthogonalPerimeter;outlineConnect=0;targetShapes=umlLifeline;portConstraint=eastwest;newEdgeStyle={&quot;curved&quot;:0,&quot;rounded&quot;:0};" parent="1" vertex="1">
          <mxGeometry x="890" y="124" width="10" height="216" as="geometry" />
        </mxCell>
        <mxCell id="JV1Mk4GfQYpAjEkD_vr5-61" value="Клиент" style="shape=umlActor;verticalLabelPosition=bottom;verticalAlign=top;html=1;" parent="1" vertex="1">
          <mxGeometry x="880" y="40" width="30" height="60" as="geometry" />
        </mxCell>
        <mxCell id="JV1Mk4GfQYpAjEkD_vr5-62" value="База данных&lt;div&gt;пользователей&lt;/div&gt;" style="shape=umlLifeline;perimeter=lifelinePerimeter;whiteSpace=wrap;html=1;container=0;dropTarget=0;collapsible=0;recursiveResize=0;outlineConnect=0;portConstraint=eastwest;newEdgeStyle={&quot;edgeStyle&quot;:&quot;elbowEdgeStyle&quot;,&quot;elbow&quot;:&quot;vertical&quot;,&quot;curved&quot;:0,&quot;rounded&quot;:0};" parent="1" vertex="1">
          <mxGeometry x="1345" y="40" width="100" height="300" as="geometry" />
        </mxCell>
        <mxCell id="JV1Mk4GfQYpAjEkD_vr5-63" value="" style="html=1;points=[];perimeter=orthogonalPerimeter;outlineConnect=0;targetShapes=umlLifeline;portConstraint=eastwest;newEdgeStyle={&quot;edgeStyle&quot;:&quot;elbowEdgeStyle&quot;,&quot;elbow&quot;:&quot;vertical&quot;,&quot;curved&quot;:0,&quot;rounded&quot;:0};" parent="JV1Mk4GfQYpAjEkD_vr5-62" vertex="1">
          <mxGeometry x="45" y="130" width="10" height="140" as="geometry" />
        </mxCell>
        <mxCell id="JV1Mk4GfQYpAjEkD_vr5-67" value="Передача данных&lt;div&gt;из формы&lt;/div&gt;&lt;div&gt;регистрации&lt;/div&gt;" style="html=1;verticalAlign=bottom;endArrow=block;edgeStyle=elbowEdgeStyle;elbow=vertical;curved=0;rounded=0;" parent="1" source="JV1Mk4GfQYpAjEkD_vr5-56" target="cDQjMubUksCgyrcAIJ8Y-2" edge="1">
          <mxGeometry relative="1" as="geometry">
            <mxPoint x="1110" y="163.5" as="sourcePoint" />
            <Array as="points">
              <mxPoint x="1210" y="170" />
              <mxPoint x="1225" y="143.5" />
            </Array>
            <mxPoint x="1170" y="180" as="targetPoint" />
          </mxGeometry>
        </mxCell>
        <mxCell id="JV1Mk4GfQYpAjEkD_vr5-71" value="Пользователь добавлен" style="html=1;verticalAlign=bottom;endArrow=open;dashed=1;endSize=8;edgeStyle=elbowEdgeStyle;elbow=vertical;curved=0;rounded=0;" parent="1" target="JV1Mk4GfQYpAjEkD_vr5-56" edge="1" source="JV1Mk4GfQYpAjEkD_vr5-63">
          <mxGeometry x="-0.5256" relative="1" as="geometry">
            <mxPoint x="1110" y="310" as="targetPoint" />
            <Array as="points">
              <mxPoint x="1120" y="310" />
            </Array>
            <mxPoint x="1319.5" y="310" as="sourcePoint" />
            <mxPoint as="offset" />
          </mxGeometry>
        </mxCell>
        <mxCell id="JV1Mk4GfQYpAjEkD_vr5-72" value="Клиент" style="shape=umlActor;verticalLabelPosition=bottom;verticalAlign=top;html=1;" parent="1" vertex="1">
          <mxGeometry x="990" y="557" width="30" height="60" as="geometry" />
        </mxCell>
        <mxCell id="JV1Mk4GfQYpAjEkD_vr5-74" value="Интерфейс&lt;div&gt;сайт агентства&lt;/div&gt;" style="html=1;whiteSpace=wrap;" parent="1" vertex="1">
          <mxGeometry x="1120" y="557" width="110" height="50" as="geometry" />
        </mxCell>
        <mxCell id="JV1Mk4GfQYpAjEkD_vr5-76" value="Запрос&amp;nbsp;&lt;div&gt;на создание&lt;div&gt;аккаунта&lt;/div&gt;&lt;/div&gt;" style="html=1;verticalAlign=bottom;endArrow=block;edgeStyle=elbowEdgeStyle;elbow=vertical;curved=0;rounded=0;" parent="1" edge="1">
          <mxGeometry y="8" relative="1" as="geometry">
            <mxPoint x="1020" y="568" as="sourcePoint" />
            <Array as="points">
              <mxPoint x="1110" y="568" />
            </Array>
            <mxPoint x="1120" y="568" as="targetPoint" />
            <mxPoint as="offset" />
          </mxGeometry>
        </mxCell>
        <mxCell id="cDQjMubUksCgyrcAIJ8Y-1" value="Сервер валидации&lt;div&gt;регистрации&lt;/div&gt;" style="shape=umlLifeline;perimeter=lifelinePerimeter;whiteSpace=wrap;html=1;container=0;dropTarget=0;collapsible=0;recursiveResize=0;outlineConnect=0;portConstraint=eastwest;newEdgeStyle={&quot;edgeStyle&quot;:&quot;elbowEdgeStyle&quot;,&quot;elbow&quot;:&quot;vertical&quot;,&quot;curved&quot;:0,&quot;rounded&quot;:0};" parent="1" vertex="1">
          <mxGeometry x="1200" y="40" width="100" height="300" as="geometry" />
        </mxCell>
        <mxCell id="cDQjMubUksCgyrcAIJ8Y-2" value="" style="html=1;points=[];perimeter=orthogonalPerimeter;outlineConnect=0;targetShapes=umlLifeline;portConstraint=eastwest;newEdgeStyle={&quot;edgeStyle&quot;:&quot;elbowEdgeStyle&quot;,&quot;elbow&quot;:&quot;vertical&quot;,&quot;curved&quot;:0,&quot;rounded&quot;:0};" parent="cDQjMubUksCgyrcAIJ8Y-1" vertex="1">
          <mxGeometry x="45" y="130" width="10" height="50" as="geometry" />
        </mxCell>
        <mxCell id="cDQjMubUksCgyrcAIJ8Y-4" value="Результат обработки&lt;div&gt;формы регистрации&lt;/div&gt;" style="html=1;verticalAlign=bottom;endArrow=open;dashed=1;endSize=8;edgeStyle=elbowEdgeStyle;elbow=vertical;curved=0;rounded=0;" parent="1" source="cDQjMubUksCgyrcAIJ8Y-2" target="JV1Mk4GfQYpAjEkD_vr5-56" edge="1">
          <mxGeometry relative="1" as="geometry">
            <mxPoint x="1125" y="220" as="targetPoint" />
            <Array as="points">
              <mxPoint x="1145" y="220" />
            </Array>
            <mxPoint x="1225" y="220" as="sourcePoint" />
            <mxPoint as="offset" />
          </mxGeometry>
        </mxCell>
        <mxCell id="lZkW21tllTIeX1kOgTOP-1" value="Добавление нового&lt;div&gt;пользователя&lt;/div&gt;" style="html=1;verticalAlign=bottom;endArrow=block;edgeStyle=elbowEdgeStyle;elbow=vertical;curved=0;rounded=0;" edge="1" parent="1">
          <mxGeometry x="0.5254" relative="1" as="geometry">
            <mxPoint x="1095" y="270" as="sourcePoint" />
            <Array as="points">
              <mxPoint x="1215" y="270" />
              <mxPoint x="1230" y="243.5" />
            </Array>
            <mxPoint x="1390" y="270" as="targetPoint" />
            <mxPoint as="offset" />
          </mxGeometry>
        </mxCell>
        <mxCell id="lZkW21tllTIeX1kOgTOP-2" value="Аккаунт создан" style="html=1;verticalAlign=bottom;endArrow=open;dashed=1;endSize=8;edgeStyle=elbowEdgeStyle;elbow=vertical;curved=0;rounded=0;" edge="1" parent="1" source="JV1Mk4GfQYpAjEkD_vr5-56" target="JV1Mk4GfQYpAjEkD_vr5-60">
          <mxGeometry relative="1" as="geometry">
            <mxPoint x="920" y="320" as="targetPoint" />
            <Array as="points">
              <mxPoint x="970" y="320" />
            </Array>
            <mxPoint x="1070" y="320" as="sourcePoint" />
            <mxPoint as="offset" />
          </mxGeometry>
        </mxCell>
        <mxCell id="lZkW21tllTIeX1kOgTOP-3" value="Аккаунт создан" style="html=1;verticalAlign=bottom;endArrow=open;dashed=1;endSize=8;edgeStyle=elbowEdgeStyle;elbow=vertical;curved=0;rounded=0;exitX=0;exitY=0.75;exitDx=0;exitDy=0;" edge="1" parent="1" source="JV1Mk4GfQYpAjEkD_vr5-74" target="JV1Mk4GfQYpAjEkD_vr5-72">
          <mxGeometry relative="1" as="geometry">
            <mxPoint x="1050" y="600" as="targetPoint" />
            <Array as="points">
              <mxPoint x="1080" y="595" />
            </Array>
            <mxPoint x="1100" y="330" as="sourcePoint" />
            <mxPoint as="offset" />
          </mxGeometry>
        </mxCell>
        <mxCell id="lZkW21tllTIeX1kOgTOP-4" value="Сервер валидации&lt;div&gt;регистрации&lt;/div&gt;" style="html=1;whiteSpace=wrap;" vertex="1" parent="1">
          <mxGeometry x="1380" y="470" width="110" height="50" as="geometry" />
        </mxCell>
        <mxCell id="lZkW21tllTIeX1kOgTOP-5" value="База данных&lt;div&gt;пользователей&lt;/div&gt;" style="html=1;whiteSpace=wrap;" vertex="1" parent="1">
          <mxGeometry x="1380" y="640" width="110" height="50" as="geometry" />
        </mxCell>
        <mxCell id="lZkW21tllTIeX1kOgTOP-6" value="Пользователь добавлен" style="html=1;verticalAlign=bottom;endArrow=open;dashed=1;endSize=8;elbow=vertical;rounded=0;exitX=0;exitY=0;exitDx=0;exitDy=0;entryX=1;entryY=1;entryDx=0;entryDy=0;" edge="1" parent="1" source="lZkW21tllTIeX1kOgTOP-5" target="JV1Mk4GfQYpAjEkD_vr5-74">
          <mxGeometry x="-0.4353" y="-11" relative="1" as="geometry">
            <mxPoint x="1105" y="320" as="targetPoint" />
            <mxPoint x="1400" y="320" as="sourcePoint" />
            <mxPoint as="offset" />
          </mxGeometry>
        </mxCell>
        <mxCell id="lZkW21tllTIeX1kOgTOP-7" value="Добавление нового&lt;div&gt;пользователя&lt;/div&gt;" style="html=1;verticalAlign=bottom;endArrow=block;elbow=vertical;rounded=0;exitX=0.5;exitY=1;exitDx=0;exitDy=0;entryX=0;entryY=0.5;entryDx=0;entryDy=0;" edge="1" parent="1" source="JV1Mk4GfQYpAjEkD_vr5-74" target="lZkW21tllTIeX1kOgTOP-5">
          <mxGeometry x="-0.0456" y="-47" relative="1" as="geometry">
            <mxPoint x="1105" y="280" as="sourcePoint" />
            <mxPoint x="1400" y="280" as="targetPoint" />
            <mxPoint as="offset" />
          </mxGeometry>
        </mxCell>
        <mxCell id="lZkW21tllTIeX1kOgTOP-8" value="Передача данных&lt;div&gt;из формы&lt;/div&gt;&lt;div&gt;регистрации&lt;/div&gt;" style="html=1;verticalAlign=bottom;endArrow=block;elbow=vertical;rounded=0;exitX=0.5;exitY=0;exitDx=0;exitDy=0;entryX=0;entryY=0.5;entryDx=0;entryDy=0;" edge="1" parent="1" source="JV1Mk4GfQYpAjEkD_vr5-74" target="lZkW21tllTIeX1kOgTOP-4">
          <mxGeometry x="-0.1402" y="11" relative="1" as="geometry">
            <mxPoint x="1170" y="438.82" as="sourcePoint" />
            <mxPoint x="1320" y="438.82" as="targetPoint" />
            <mxPoint as="offset" />
          </mxGeometry>
        </mxCell>
        <mxCell id="lZkW21tllTIeX1kOgTOP-9" value="Результат обработки&lt;div&gt;формы регистрации&lt;/div&gt;" style="html=1;verticalAlign=bottom;endArrow=open;dashed=1;endSize=8;elbow=vertical;rounded=0;exitX=0;exitY=1;exitDx=0;exitDy=0;entryX=1;entryY=0;entryDx=0;entryDy=0;" edge="1" parent="1" source="lZkW21tllTIeX1kOgTOP-4" target="JV1Mk4GfQYpAjEkD_vr5-74">
          <mxGeometry x="-0.3112" y="49" relative="1" as="geometry">
            <mxPoint x="1270" y="555.8199999999999" as="targetPoint" />
            <mxPoint x="1420" y="555.8199999999999" as="sourcePoint" />
            <mxPoint as="offset" />
          </mxGeometry>
        </mxCell>
      </root>
    </mxGraphModel>
  </diagram>
</mxfile>
